<svg width="190" height="130" viewBox="0 0 190 130" fill="none" xmlns="http://www.w3.org/2000/svg">
<g clip-path="url(#clip0_2253_35403)">
<path d="M66.63 116.03C70.94 116.03 73.19 112.3 73.19 108.28C73.19 104.26 70.88 100.64 66.63 100.64H62.98V116.03H66.63ZM66.7 95.7999C74.16 95.7999 78.17 101.86 78.17 108.25C78.27 114.67 74.26 120.88 66.7 120.88H58V95.8099H66.7V95.7999Z" fill="#263244"/>
<path d="M83.37 113.52C83.5 115.64 84.84 116.6 86.85 116.6C89.02 116.6 90.4 115.09 90.43 112.8C90.33 108.78 86.85 108.21 83.84 108.78V108.03L88.15 100.07H79.89V95.7999H94.77V96.5499L89.69 105.3C93.44 105.98 95.14 109.28 95.14 112.76C95.14 117.21 92.2 121.23 86.91 121.23C82.53 121.23 79.15 118.36 78.98 113.52H83.36H83.37Z" fill="#263244"/>
<path d="M109.01 112.81C109.01 110.23 107.54 108.79 105.13 108.79C102.72 108.79 101.22 110.22 101.22 112.81C101.22 115.36 102.72 116.72 105.13 116.72C107.54 116.72 109.01 115.36 109.01 112.81ZM110.11 95.59L104.76 105.02C105.13 104.8 105.53 104.7 105.96 104.7C110.68 104.52 113.99 107.64 113.99 112.81C113.99 118.55 110.11 121.28 105.13 121.28C100.15 121.28 96.33 118.55 96.33 112.81C96.33 110.98 96.93 108.97 97.83 107.43L104.62 95.59H110.1H110.11Z" fill="#263244"/>
<path d="M127.92 113.16C127.99 112.55 128.02 111.9 128.02 111.15V105.63C128.02 104.91 127.99 104.23 127.92 103.59C127.69 101.33 126.05 100.29 124.01 100.29C121.87 100.29 120.3 101.33 120.06 103.59C119.99 104.24 119.96 104.92 119.96 105.63V111.15C119.96 111.9 119.99 112.55 120.06 113.16C120.29 115.35 121.87 116.53 124.01 116.53C126.05 116.53 127.69 115.35 127.92 113.16ZM132.7 104.16V112.59C132.7 118.04 128.79 121.23 124 121.23C119.15 121.23 115.24 118.04 115.24 112.59V104.16C115.24 98.74 119.15 95.59 124 95.59C128.78 95.59 132.7 98.75 132.7 104.16Z" fill="#263244"/>
<path d="M131.34 8H106.99C106.62 8 106.27 8.15 106.02 8.41L95.55 19.02C95.3 19.28 95.16 19.62 95.16 19.98V41.8L84.53 31.18C84.17 30.82 83.6 30.82 83.24 31.18L58.27 56.13C57.91 56.49 57.91 57.06 58.27 57.42L83.24 82.37C83.6 82.73 84.17 82.73 84.53 82.37L95.16 71.75V81.69C95.16 82.44 95.77 83.06 96.53 83.06H120.9C121.26 83.06 121.6 82.92 121.85 82.67L132.3 72.52C132.57 72.26 132.71 71.91 132.71 71.54V9.37C132.71 8.62 132.1 8 131.34 8Z" fill="#EB644C"/>
</g>
<defs>
<clipPath id="clip0_2253_35403">
<rect width="74.7" height="113.27" fill="white" transform="translate(58 8)"/>
</clipPath>
</defs>
</svg>
