<?xml version="1.0" encoding="UTF-8"?>
<svg id="svg17" xmlns="http://www.w3.org/2000/svg" viewBox="0 0 788.93 319.02">
  <defs>
    <style>
      .cls-1 {
        fill: #1985c1;
      }
    </style>
  </defs>
  <path id="path2" class="cls-1" d="m317.34,0c1.3.54,2.74.41,4.09.65,15.17,2.66,27.67,15.33,30.15,30.57.39,2.47.6,4.95.6,7.45v178.35c0,1.46-.06,2.92-.5,4.3-1.67,5.11-7.16,7.76-12.22,5.92-1.1-.39-2.14-.91-3.18-1.38-19.52-8.86-39.04-17.72-58.58-26.56-2.53-1.14-4.82-2.55-6.78-4.54-3.37-3.44-5.11-7.56-5.27-12.36-.03-.7,0-1.41,0-2.11v-74.85c-.03-8.7-5.76-16.11-14.17-18.32-1.74-.47-3.52-.6-5.34-.6-22.46.03-44.91.03-67.35.03h-73.13c-6.65,0-11.91,2.71-15.77,8.11-2.19,3.05-3.31,6.52-3.34,10.29,0,18.24-.31,36.52.1,54.79.34,15.4,8.05,26.59,21.89,33.22,11.36,5.45,22.93,10.45,34.41,15.67,67.53,30.62,135.03,61.25,202.52,91.87.66.29,1.27.57,1.9.91,4.04,2.32,5.78,7.12,4.17,11.44-1.64,4.41-6.18,7.01-10.76,5.92-7.25-1.72-14.44-3.6-21.66-5.42-28.3-7.17-56.63-14.36-84.96-21.52-32.32-8.21-64.63-16.4-96.95-24.58-32.47-8.24-64.98-16.47-97.44-24.68-4.07-1.04-8.13-2.03-12.17-3.13-14.51-3.91-25.43-16.57-27.26-31.45-.23-1.85-.31-3.7-.31-5.55C.02,147.76-.04,93.07.05,38.4.07,22.58,7.4,11.01,21.44,3.74c3.85-1.98,8-3.1,12.36-3.44.39-.03.81-.03,1.14-.29"/>
  <path id="path3" class="cls-1" d="m410.22,121.17c.57-1.41.54-2.94.67-4.43.41-4.64,1.23-9.2,2.81-13.6.89-2.47,2.01-4.82,3.62-6.94,2.47-3.26,6.88-4.22,10.27-2.27,3.57,2.06,5.14,6.52,3.6,10.25-.13.34-.26.65-.44.94-3.21,4.9-3.98,10.35-3.6,16.05.16,2.14.29,4.27.86,6.38,1.7,6.25,5.89,9.96,11.96,11.73,3.85,1.12,7.79,1.36,11.76,1.27,4.25-.08,8.47-.41,12.59-1.59,2.08-.6,4.07-1.38,5.84-2.68,4.25-3.07,4.51-8.11.6-11.62-1.25-1.12-2.68-2.01-4.2-2.78-2.92-1.54-5.89-3.02-8.83-4.54-3.6-1.85-5.27-5.08-4.61-8.92.5-3,2.92-5.21,5.94-5.45,1.48-.13,2.92.03,4.27.63,1.23.52,2.45,1.04,3.67,1.61,5.03,2.43,10.37,3.62,15.93,4.12,4.12.37,8.26.47,12.38.37,6.09-.18,11.16-4.43,12.49-10.32.29-1.27.26-2.55.26-3.83v-55.15c0-1.23.07-2.43.47-3.6,1.36-3.78,5.18-5.99,9.33-5.39,3.91.57,6.82,3.75,7.09,7.69.03.52,0,1.04,0,1.57v54.81c0,1.27-.03,2.55.26,3.83,1.25,5.74,6.22,10.03,12.09,10.35,2.74.16,5.47.1,8.21.08,7.58-.1,13.29-5.87,13.34-13.44.03-5.47.03-10.95,0-16.42-.03-1.72.34-3.34,1.27-4.82,1.9-3.02,5.62-4.54,9.09-3.67,3.52.91,6.36,4.07,6.41,7.64.1,6.67.26,13.4-.07,20.04-.44,8.13-3.62,15.11-10.12,20.31-4.38,3.52-9.46,5.42-15.01,5.99-5.87.63-11.73.6-17.6-.03-6.41-.67-11.8-3.31-15.69-8.65-.18-.23-.37-.44-.52-.63-.47.06-.6.41-.81.67-3.85,5.34-9.22,7.92-15.67,8.68-3.78.42-7.56.23-11.33.31-.52,0-1.04-.1-1.54.1-.13.31,0,.57.1.83,2.61,7.92.5,14.67-5.27,20.38-4.07,4.04-9.09,6.44-14.51,8-7.51,2.18-15.2,2.81-22.96,2.18-5.74-.44-11.29-1.67-16.44-4.25-10.42-5.24-15.97-13.81-17.33-25.3-.13-1.12-.07-2.3-.65-3.34"/>
  <g id="g4">
    <path id="path4" class="cls-1" d="m697.4,109.71c2.24,0,4.04.03,5.84,0,1.25,0,1.27-.03,1.27-1.23.03-3.34-.31-6.62-1.2-9.85-.44-1.61-1.1-3.18-2.03-4.58-1.54-2.3-3.65-3.7-6.36-4.25-1.83-.37-3.7-.34-5.55,0-3.97.7-6.78,3.34-7.51,7.27-1.25,6.67,1.23,11.1,8.32,12.3,2.55.44,5.1.28,7.22.34m76.88-8.29c.06-2.34-.23-4.51-1.07-6.59-1.01-2.45-2.74-4.17-5.34-4.85-4.35-1.1-8.16-.18-11.2,3.28-1.59,1.83-2.66,3.94-3.54,6.15-1.1,2.63-2.14,5.27-3.18,7.92-.47,1.2-.47,1.23.57,1.95,4.3,3.05,9.12,4.27,14.33,3.78,4.04-.39,7.17-2.27,8.62-6.28.62-1.77.88-3.59.81-5.36m14.64,2.29c-.41.41-.29.99-.31,1.48-.19,3.97-1.27,7.69-3.07,11.18-3.75,7.32-9.98,11.29-17.91,12.77-5.52,1.01-11,.81-16.31-1.23-3.98-1.51-7.42-3.81-10.13-7.14-.57-.7-.97-.91-1.8-.34-5.16,3.5-10.97,4.9-17.13,5.21-.39.03-.81.06-1.23.03-.83-.08-1.2.21-1.3,1.12-.26,2.37-.7,4.72-1.36,7.01-2.47,8.92-7.38,15.97-15.74,20.35-4.3,2.21-8.89,3.41-13.66,3.91-5.47.57-10.92.34-16.34-.54-3.62-.6-6.44-4.72-5.97-8.45.42-3.28,3.88-6.91,8.13-6.22,3.88.6,7.74.7,11.65.34,1.61-.16,3.23-.44,4.8-.89,6.36-1.77,9.93-6.15,11.39-12.4.31-1.3.6-2.61.54-3.97-1.25-.57-2.61-.23-3.91-.23-4.67,0-9.3-.03-13.89-1.04-1.41-.29-2.81-.67-4.17-1.2-6.82-2.5-11.08-7.32-12.56-14.41-1.48-6.98-1.2-13.92,1.27-20.62,3.02-8.18,8.71-13.53,17.38-15.22,9.78-1.93,19.47,1.07,25.41,10.95,3.02,5.01,4.64,10.5,5.68,16.21.5,2.68.86,5.39,1.04,8.11.06.86.26,1.27,1.2,1.25,1.98-.06,3.97-.06,5.92-.5,2.71-.57,4.92-1.96,6.59-4.22,1.48-2.03,2.56-4.27,3.47-6.62,1.48-3.91,3.1-7.76,5.18-11.42,1.25-2.11,2.63-4.12,4.27-5.94,5.78-6.44,13.13-8.76,21.55-7.87,11.52,1.23,18.35,9.72,20.59,19.65.37,1.54.16,3.13.7,4.61"/>
  </g>
  <path id="path5" class="cls-1" d="m591.2,71.26v-30.03c0-.81.03-1.61.07-2.43.37-4.35,4.14-7.69,8.55-7.56,4.45.13,8.05,3.54,8.26,7.87.03.57,0,1.17,0,1.74v58.27c0,1.36.03,2.68.37,3.98.66,2.61,2.19,4.45,4.69,5.47,1.51.63,3.1.97,4.74,1.01,2.27.08,4.54.13,6.81.08,7.35-.13,13.11-5.89,13.19-13.27.08-5.34.03-10.72.03-16.05,0-1.17.1-2.32.47-3.44,1.36-3.91,5.32-6.28,9.53-5.71,3.7.52,6.81,3.88,6.82,7.92.08,6.85.37,13.73-.16,20.56-.99,12.96-9.33,22.59-22.12,25.1-7.95,1.57-15.97,1.38-23.9-.52-2.55-.63-4.95-1.67-7.19-3.07-5.55-3.52-8.52-8.73-9.65-15.09-.47-2.53-.5-5.08-.52-7.64,0-9.07,0-18.13,0-27.21"/>
  <path id="path6" class="cls-1" d="m447.4,174.27c-.03,5.21-4.61,9.65-9.96,9.65-5.34.03-9.78-4.45-9.69-9.82.06-5.27,4.56-9.67,9.78-9.56,5.39.09,9.9,4.53,9.87,9.74"/>
  <path id="path7" class="cls-1" d="m548.89,142.7c.06,5.32-4.25,9.69-9.53,9.78-5.37.08-10.12-4.45-10.12-9.72.03-5.17,4.61-9.65,9.96-9.67,5.27-.07,9.65,4.29,9.69,9.61"/>
  <path id="path8" class="cls-1" d="m451.74,174.22c0-5.39,4.12-9.69,9.33-9.69,5.34-.03,9.93,4.41,9.98,9.62.03,5.32-4.56,9.8-9.98,9.78-5.21,0-9.33-4.3-9.33-9.7"/>
  <path id="path9" class="cls-1" d="m638.87,143.46c-.03,5.45-4.12,9.65-9.41,9.59-5.34-.06-9.59-4.35-9.56-9.72.03-5.32,4.35-9.62,9.69-9.59,5.24,0,9.31,4.25,9.28,9.72"/>
  <path id="path10" class="cls-1" d="m553.57,142.59c.1-5.27,4.51-9.65,9.56-9.52,5.34.16,9.53,4.64,9.41,10.06-.13,5.16-4.64,9.49-9.78,9.33-5.13-.12-9.3-4.58-9.2-9.87"/>
  <g id="g11">
    <path id="path11" class="cls-1" d="m734.83,301.27c-.57-.44-1.3-.47-1.93-.67-3.47-1.2-5.62-4.56-5.27-8.16.39-3.7,3.02-6.46,6.69-6.96.81-.1,1.61-.13,2.43-.19,2.97-.18,5.32-1.51,7.09-3.88.86-1.12,1.59-2.3,2.21-3.54,1.14-2.3,2.24-4.58,3.41-6.85.41-.81.44-1.46.06-2.3-6.78-14.86-13.06-29.94-19.72-44.83-.63-1.46-1.1-2.92-1.25-4.51-.37-4.43,2.77-7.58,6.31-8.47,3.75-.97,8.6.73,10.32,5.27,3.85,10.09,8,20.07,12.04,30.07.26.63.39,1.3.89,1.83.57-.39.63-.99.83-1.51,3.94-10.06,7.89-20.12,11.83-30.18,1.48-3.75,6.12-6.34,10.03-5.58,3.7.7,6.25,3.7,6.33,7.48.06,1.51-.16,3.02-.76,4.43-7.35,17.28-14.41,34.66-21.89,51.86-1.9,4.3-4.07,8.49-6.57,12.49-1.17,1.8-2.45,3.52-3.75,5.24-4.04,5.24-9.41,7.98-15.93,8.62-.54.08-1.17-.08-1.67.34"/>
  </g>
  <path id="path12" class="cls-1" d="m455.47,228.41c.6-.31.86-.94,1.23-1.46,7.98-11.23,15.95-22.46,23.92-33.7.7-1.01,1.46-1.98,2.21-2.92,2.37-2.94,5.89-3.28,8.86-2.21,3.52,1.3,5.81,4.54,5.81,8.32.03,23.27-.03,46.52.06,69.8,0,4.61-3.98,8.99-8.86,8.92s-8.65-3.88-8.62-8.89c.07-13.44.18-26.87.29-40.32v-1.72c-.63-.13-.73.39-.91.67-5.29,7.45-10.56,14.91-15.82,22.36-1.04,1.48-2.27,2.81-3.83,3.78-3.65,2.24-7.82,1.74-10.84-1.3-.7-.7-1.25-1.54-1.83-2.34-5.03-7.27-10.06-14.54-15.09-21.79-.37-.52-.6-1.12-1.3-1.54-.29.67-.16,1.3-.16,1.93,0,13.19-.03,26.4.03,39.62,0,2.43-.57,4.58-2.17,6.44-2.43,2.78-6.12,3.81-9.52,2.63-3.31-1.14-5.61-4.27-5.84-7.98-.03-.39,0-.81,0-1.2,0-22.75,0-45.51-.03-68.23,0-2.61.6-4.98,2.4-6.91,3.15-3.34,8.11-3.7,11.67-.83.91.76,1.64,1.64,2.32,2.61,8.32,11.65,16.6,23.3,24.92,34.95.32.47.58,1.01,1.11,1.33"/>
  <path id="path13" class="cls-1" d="m604.34,244.39c.03,1.54-.07,3.75.26,5.94.91,6.12,4.56,9.93,10.69,10.63,6.41.73,12.27-1.77,14.6-9.07.65-2.14.99-4.3,1.14-6.52.26-4.56-.06-9.07-1.87-13.34-2.43-5.65-7.58-8.42-14.16-6.96-5.45,1.23-8.42,5.08-9.98,10.16-.86,2.78-.7,5.64-.67,9.14m.15-26.74c.26-.18.44-.23.54-.37,9.72-10.25,30.97-9.41,39.28,7.16,1.83,3.62,2.94,7.45,3.47,11.47.83,6.21.7,12.4-.91,18.51-1.98,7.45-5.94,13.53-12.82,17.28-6.75,3.7-13.89,4.38-21.29,2.37-3.13-.83-4.64-1.83-8.23-4.8-.47.13-.47.6-.63.91-1.77,3.67-5.76,5.62-9.72,4.77-4.01-.86-6.67-4.17-6.67-8.42v-74.35c0-.34,0-.7.03-1.04.47-3.6,2.32-6.21,5.76-7.45,5.03-1.83,10.6,2.01,11,7.48.06.57.03,1.17.03,1.74v22.86c0,.58-.1,1.15.18,1.88"/>
  <path id="path14" class="cls-1" d="m556.65,242.78v-.86c-.1-3.28-.37-6.52-1.57-9.59-1.12-2.87-2.92-5.16-5.81-6.41-2.94-1.33-6.07-1.51-9.2-.89-4.14.86-6.82,3.54-8.62,7.25-1.25,2.53-1.83,5.27-2.03,8.05-.37,4.58-.03,9.07,1.85,13.32,1.23,2.81,3.15,5.03,5.97,6.34,7.45,3.41,15.77-.26,18.22-8.08.95-2.97,1.15-6.02,1.2-9.12m-13.88,32.34c-4.79.06-9.15-.57-13.32-2.21-7.48-2.94-12.51-8.36-15.11-15.9-3.07-9.05-3.13-18.19.06-27.21,3.6-10.22,10.95-16.34,21.55-18.48,5.89-1.17,11.8-1.01,17.59.73,8.96,2.68,14.93,8.58,17.91,17.38,3.1,9.22,2.97,18.55-.5,27.67-3.62,9.56-10.73,15.2-20.72,17.28-2.56.52-5.17.78-7.45.73"/>
  <path id="path15" class="cls-1" d="m700.56,229.27c0-12.38.06-24.76-.03-37.13-.03-3,1.83-6.96,5.94-8.42,5.32-1.87,10.89,2.03,11.2,7.82.03.47,0,.94,0,1.41,0,24.29,0,48.58.03,72.9,0,1.35-.1,2.66-.6,3.94-1.48,3.78-5.39,5.97-9.41,5.24-4.12-.73-7.12-4.14-7.14-8.24,0-12.52,0-24.99,0-37.51"/>
  <path id="path16" class="cls-1" d="m663.45,242.8v-22.52c0-1.23.03-2.43.37-3.62,1.07-3.7,4.54-6.31,8.6-5.99,4.07.29,7.19,3.54,7.56,7.61.08.7.06,1.41.06,2.11v45.01c0,1.23,0,2.43-.34,3.62-1.1,3.91-4.61,6.38-8.68,6.07-3.83-.31-7.01-3.44-7.45-7.35-.08-.81-.1-1.61-.1-2.43v-22.52"/>
  <path id="path17" class="cls-1" d="m671.73,183.57c5.42.06,9.85,4.48,9.8,9.75-.06,5.32-4.67,9.9-9.96,9.88-5.11-.03-9.43-4.74-9.33-10.22.08-5.19,4.38-9.47,9.49-9.41"/>
</svg>