<?xml version="1.0" encoding="utf-8"?>
<!-- Generator: Adobe Illustrator 27.6.1, SVG Export Plug-In . SVG Version: 6.00 Build 0)  -->
<svg version="1.1" id="Layer_2_00000038386849687527385850000004095499317426059401_"
	 xmlns="http://www.w3.org/2000/svg" xmlns:xlink="http://www.w3.org/1999/xlink" x="0px" y="0px" viewBox="0 0 1160.1 349.1"
	 style="enable-background:new 0 0 1160.1 349.1;" xml:space="preserve">
<style type="text/css">
	.st0{fill:#DDDCE5;}
	.st1{fill:#C0001A;}
</style>
<g id="Layer_1-2">
	<g>
		<path class="st0" d="M549.9,234.3c19.3-3.9,38.6-4.7,57.8,0c0.1,0.2,0.1,0.5,0.2,0.7c-1.3,0.5-2.5,1.1-3.8,1.5
			c-14.6,5.2-28.6,11.4-41.3,20.3c-11.9,8.4-22.8,17.9-30.7,30.2c-2.5,3.9-4.4,8.1-6.6,12.1c-0.5,1-1.1,2-1.5,2.9
			c-9.4-10.8-18.8-21.3-28-32c-0.9-1-1.4-2.6-1.5-3.9c-0.1-30.1-0.4-60.2,0.1-90.3c0.2-16.1,5.6-30.8,16.4-43.2
			c0.7-0.8,1.3-1.7,1.6-2.9c-12.1,3.5-23.2,8.5-30,20.1c-19-18.3-41.1-31.2-65.5-41.3c-0.1,1.4-0.3,2.4-0.3,3.5
			c0,40.2-0.2,80.3,0.1,120.5c0,6.4-2,11.1-6.7,14.9c-3.5,2.8-7.2,5.4-10.9,8c-0.6,0.4-1.9,0.5-2.5,0.1c-6.2-3.1-11.6-7.3-15.7-12.9
			c-1.2-1.7-2.1-4-2.1-6.1c-0.1-35.1-0.1-70.3-0.1-105.4c0-6.6,0-13.2,0-19.7c0-1-0.3-1.9-0.4-3.1c-24.1,10.6-47,22.3-65.3,41.7
			c-3.4-5.3-7.8-9.8-13.2-13.1c-5.3-3.3-10.8-6-16.8-7.6c-0.2,0.2-0.4,0.4-0.5,0.6c0.5,0.7,0.9,1.5,1.4,2.1
			c12,13.2,17,29.1,17.1,46.5c0.2,28.9,0,57.8,0.1,86.7c0,2.7-0.9,4.7-2.6,6.7c-7.6,8.5-15.1,17-22.7,25.5c-1.3,1.5-2.5,3-3.9,4.7
			c-0.4-0.5-0.8-0.9-1-1.4c-5.2-13-14.1-23.3-24.3-32.6c-14.9-13.6-32.4-22.6-51-29.9c-2.6-1.1-5.3-2.1-7.9-3.5
			c19.1-4.6,38.3-4.5,57.9-1.3c-0.5-0.7-1-1.4-1.6-2.1c-8.2-8.9-18.7-14.2-30.1-17.8c-11.9-3.7-24.3-4.8-36.5-6.7
			c-47.8-7.5-84.3-31.9-108.8-73.7c-1.6-2.8-3.1-5.6-4.3-8.6c15.3,9.8,32.2,15.8,49.3,20.8c18.7,5.5,37.9,8.4,57.3,9.7
			c1.1,0.1,2.5,1.1,3,2.1c8.7,15.1,20.9,26.9,34.9,37c2.1,1.6,4.6,2.7,7.1,3.8c-10.3-12.9-19-26.7-27.3-41.4
			c14.6,1.3,28.4,3.8,41.9,8c13.5,4.3,26.3,9.9,38.3,18.1c-0.3-1.1-0.4-2.2-0.9-3.2c-4.6-10.2-12.1-17.9-21.5-23.9
			c-13-8.4-27.3-13.7-42.3-17c-8-1.8-16-3.4-24.1-5.1c-1.6-0.3-2.7-1-3.2-2.8c-3.4-11-6.7-22-7.3-33.6c0-0.3-0.1-0.6-0.3-1.7
			c-0.7,1.6-1.3,2.6-1.6,3.7c-2.8,9.3-4,18.8-3.2,28.6c0.3,2.9,0,3.2-2.8,2.6c-25.4-5.1-49.1-14.7-71.2-28
			C81.9,97,73.4,91,65.2,84.7c-24.6-18.7-43-42.7-58-69.4C5,11.4,3,7.4,1,3.3C0.6,2.5,0.5,1.6,0,0c2.5,2,4.4,3.4,6.3,5
			c13.8,11.4,28.9,20.7,44.5,29.2c19.9,10.9,40.5,20.2,61.8,28c21.2,7.7,42.8,14.4,64.9,18.8c19.3,3.9,38.7,7.3,58.1,10.2
			c17.6,2.6,35.4,2.5,53.1,0.1c26.2-3.5,50.5-12.4,73-26.4c3.7-2.3,7.1-5,10.5-7.8c1.6-1.3,2.3-1.3,3.5,0.4
			c5.9,8.6,13.4,15.7,21.5,22.3c0.3,0.2,0.6,0.3,0.9,0.5c8.5-6.7,16.2-14.1,22.3-22.9c0.8-1.1,1.3-2,2.7-0.8
			c14.8,12.4,31.9,20.3,50,26.5c20.5,7,41.7,9.8,63.4,9.6c15.9-0.1,31.6-2.3,47.2-4.9c22.6-3.7,45-8.6,67-15
			c23.1-6.8,45.7-15.3,67.6-25.3c17.3-7.9,34.1-16.7,49.9-27.2c8.9-5.9,17.2-12.6,25.8-19c0.5-0.4,1.1-0.8,2.1-1
			c-1.5,3.4-3,6.9-4.7,10.2c-18,34.7-43,63.2-75.5,84.9c-16.8,11.2-34.5,20.6-53.7,26.8c-15.7,5.1-31.7,8.8-48.1,11.2
			c-19.8,2.9-39.2,8-57.2,17.3c-8.9,4.6-17,10.4-23.2,18.3c-2.4,3.1-4.1,6.7-6,10.1c-0.5,1-0.5,2.2-1,4.1c3.1-2.1,5.5-3.8,8-5.4
			c14.6-9.4,30.9-14.3,47.7-17.9c16.1-3.4,32.6-4.3,48.9-5.7c32-2.8,62.8-9.9,91.3-25.1c2.8-1.5,5.4-3.2,8.7-5.3
			c-0.6,1.6-0.9,2.6-1.3,3.6c-4.5,9.5-10,18.3-17,26.1c-6.3,7.1-12.8,14.1-20.1,20.1c-17,14.1-36.4,23.6-57.8,29.4
			c-12.2,3.3-24.8,4.1-37.2,6.1c-15.9,2.6-30.9,7.6-43.3,18.3c-1.6,1.4-3,3.1-4.5,4.6c-0.3,0.3-0.4,0.7-0.6,1.1
			C549.7,233.8,549.8,234,549.9,234.3L549.9,234.3z"/>
		<path class="st0" d="M365,132.1c0,2.6,0,4.5,0,6.4c0,34.4,0,68.7,0.1,103.1c0,1.7,0.4,3.6,1.3,5.1c6,9.9,14.1,17.6,24.5,23.1
			c5,2.6,9.4,2.3,14-0.2c10.4-5.7,18.3-14,24.3-24.1c0.6-1.1,0.6-2.6,0.6-4c0-34.8,0-69.6,0-104.3c0-1.3,0-2.7,0-4.5
			c1.1,0.4,1.8,0.6,2.4,0.9c14.9,8.5,29.2,17.8,41,30.5c1.6,1.7,2.5,3.5,2.5,5.9c-0.1,30.4,0,60.9-0.1,91.3c0,2.7-0.7,5.6-1.8,8.1
			c-7.7,18-19.9,32.7-33.4,46.5c-12,12.4-25.7,22.5-39.9,32.1c-1.9,1.3-3.4,1.6-5.5,0.3c-17.9-11.3-34.1-24.6-48.1-40.5
			c-10.4-11.8-19.4-24.5-25.8-38.9c-1.3-2.9-1.8-6.4-1.8-9.6c-0.1-24.9-0.1-49.9-0.1-74.9c0-4.5,0-9.1-0.2-13.6
			c-0.1-2.3,0.7-4.1,2.2-5.8c9.3-10.4,20.2-18.6,32.1-25.8C356.9,136.9,360.7,134.7,365,132.1L365,132.1z"/>
	</g>
</g>
<g>
	<path class="st1" d="M741.7,253.2c6.2-9.1,12.3-18.4,18.4-27.9c13.3-21.3,27.5-41.3,42.5-60.2c1.3-1.5,2.3-2.6,3.1-3.2
		c0.6-0.4,1.3-0.6,2-0.6h0.5c0.9,0,2,0.2,3.2,0.6c1.1,0.4,1.7,1,1.7,1.7c0,0.2-0.1,0.6-0.2,1.2c-0.2,0.6-0.7,1.5-1.7,2.6
		c-9,12.2-18.9,26.6-29.8,43.3c-9.2,13.9-18.5,27.7-28,41.2c-3.5,5.1-6.4,8.5-8.6,10.3c-1.4,1-2.8,1.4-4.3,1.4
		c-0.9,0-1.8-0.2-2.8-0.6c-1.2-0.5-2.5-1.1-3.8-1.7c-1.2-0.7-2.3-1.4-3.2-2.1c-0.8-0.7-1.4-1.3-1.7-1.9c-0.3-0.6-0.5-1.4-0.5-2.3
		c0.6-4.9,2.6-13,5.9-24.2c3.3-11.2,6.9-22,10.9-32.5c4-10.4,7.4-16.9,10.3-19.5c0.3-0.2,0.6-0.3,1-0.3c1,0,2.3,0.6,4,1.7
		c2.5,1.6,3.9,2.9,4.3,3.9c0.1,0.3,0.1,0.6,0.1,0.9c0,1-0.2,2.3-0.7,3.9l-0.6,2.3c-3.7,12.7-8.1,25.4-13.3,38.1
		c-2.2,5.7-4.3,11.3-6.3,16.9C742.6,250.1,741.8,252.4,741.7,253.2z"/>
	<path class="st1" d="M815.6,212c-5.8,7.4-9.2,13.4-10.4,18c-0.2,0.6-0.2,1.1-0.2,1.4c0,0.2,0,0.3,0.1,0.4c0.2,0.2,0.5,0.3,1,0.3
		l0.6-0.1c4.5-0.7,9.9-2.7,16.2-6.1c6.3-3.4,12.7-7.3,19.2-11.7c6.5-4.4,12.5-8.5,17.7-12.3c1.5-1.1,2.9-2.1,4.2-3
		c3-2.1,4.9-3.1,5.7-3.1c0.3,0,0.4,0.1,0.4,0.4v0.7c-0.1,0.5-1.5,2.3-4.3,5.2c-6.9,6.9-15.4,14.1-25.5,21.6
		c-10.1,7.5-18.8,12.8-26.1,15.8c-2.5,0.9-4.5,1.4-6,1.4h-0.4c-1.4,0-2.7-0.3-3.9-0.8c-2.5-1.1-4.7-2.7-6.4-5
		c-1.7-2.3-3-4.7-3.7-7.4c-0.1-0.5-0.2-1.1-0.2-1.7c0-3.4,1.8-8.1,5.3-13.9c3.5-5.9,8-11.8,13.5-17.9c5.5-6,10.4-10.4,14.8-12.9
		c2.5-1.4,4.8-2.1,6.8-2.1c0.5,0,1,0.1,1.4,0.2c2.3,0.4,4.3,1.3,6,2.9c3.4,3.2,5.1,6.4,5.1,9.5c0,0.9-0.4,2.6-1.1,5
		c-0.8,2.4-3.2,5.2-7.4,8.2c-4.2,3.1-8.5,5.3-12.9,6.6c-2.3,0.7-4.3,1-5.9,1C817.6,212.8,816.5,212.5,815.6,212z M841.1,191.1
		c0.1-0.2,0.1-0.3,0.1-0.6c0-0.3-0.1-0.6-0.2-1s-0.4-0.7-0.9-1c-0.2-0.1-0.4-0.2-0.6-0.2c-0.2,0-0.4,0.1-0.7,0.2
		c-2.4,1.3-5.4,3.7-8.9,7c-3.5,3.4-7,7.2-10.4,11.6c1.6-0.8,4-2.2,7.2-4.1c3.2-2,6.2-4,9.1-6.3C838.6,194.7,840.4,192.7,841.1,191.1
		z"/>
	<path class="st1" d="M869.9,191.2c0.2-0.3,0.3-0.7,0.6-1c0.7-1.4,1.6-2.7,2.5-4.1c1-1.3,2.1-2.2,3.3-2.6c0.3-0.1,0.6-0.2,0.9-0.2
		c1,0,2.1,0.6,3.3,1.7l0.2,0.2c2.1,1.9,3.3,3.5,3.7,4.8c0.1,0.3,0.2,0.6,0.2,1c0,1.2-0.6,2.7-1.8,4.6c-3.5,5.9-7.1,12.1-10.6,18.8
		s-6.4,12.3-8.7,16.9c-2.2,4.5-3.2,6.8-3.2,6.9c4.3-6.9,9.8-14.5,16.3-23c6.5-8.4,13.3-16.4,20.3-23.8c7-7.4,13.6-13.1,19.6-17
		c1.2-0.8,2.3-1.3,3.2-1.3h0.5c0.8,0,1.6,0.2,2.5,0.6c0.4,0.2,0.8,0.3,1.2,0.5c1.7,0.6,3.4,1.6,5,3.1c1.5,1.3,2.3,3.1,2.3,5.4
		c0,0.6-0.1,1.3-0.2,2.1c-0.5,3.1-1.5,6.4-2.9,9.9c-1.4,3.5-3,7.3-4.8,11.2c-3.4,7.1-6.4,14.8-8.9,23c-0.2,0.6-0.2,1-0.2,1.3
		c0,0.2,0,0.4,0.1,0.6c0.1,0.2,0.4,0.3,0.8,0.3c1.5,0,5.2-2.4,10.9-7.2c5.7-4.8,11.4-9.6,17-14.6c2.7-2.5,5.1-4.6,7.2-6.3
		c2-1.7,3.4-2.8,4.1-3.3c0.4-0.2,0.7-0.4,1-0.6c2-1.3,3.3-2,4-2.1c0.2-0.1,0.3-0.1,0.4-0.1c0.3,0,0.4,0.1,0.5,0.3v0.2
		c0,0.4-0.2,0.9-0.6,1.5c-1.6,2.6-5.5,7.1-11.6,13.4c-6.1,6.4-12.3,12.4-18.8,18c-6.5,5.7-11.2,8.8-14.1,9.3h-0.8
		c-2,0-3.9-0.5-5.6-1.5c-4.1-2.2-6.4-4.9-7-8c-0.2-1.1-0.3-2.3-0.3-3.6c0-2.3,0.3-4.8,1-7.4c1.1-4.4,2.9-9.5,5.5-15.4
		c2.6-5.9,4.9-10.7,6.7-14.4c1.1-2.2,1.6-3.4,1.7-3.6c-4.5,2.8-10.3,8.2-17.5,16.1c-7.2,7.9-14.3,16.5-21.5,25.8
		c-7.1,9.2-12.9,17.3-17.2,24.1c-2.4,4.1-4.8,6.1-7.2,6.1c-1,0-2-0.3-3-1c-1.6-1-3-2.1-4.3-3.2c-0.3-0.3-0.6-0.5-0.9-0.7
		c-1.6-1.2-2.5-2.7-2.5-4.4V248c0.3-3.6,2-8.7,5.2-15.4c3.1-6.7,6.7-13.6,10.6-20.7c4-7.1,7.3-13,10.1-17.7
		C868.9,193,869.4,192,869.9,191.2z"/>
	<path class="st1" d="M991.7,155.9l-71.6,129.7c-1.1,1.8-2.2,3-3.3,3.3c-0.5,0.2-0.9,0.2-1.4,0.2c-0.7,0-1.5-0.2-2.3-0.6
		c-0.8-0.4-1.6-1.1-2.3-1.9c-0.7-0.8-1-1.5-1.1-2v-0.2c0-0.4,0.1-0.8,0.3-1.4c0.2-0.6,0.7-1.5,1.3-2.7c8.2-15.4,16.4-30.8,24.7-46.5
		c13.7-25.9,27.5-51.7,41.5-77.4l-63.3,2.1c-2.1-0.3-3.2-1.2-3.2-2.5v-1.1c0.1-0.7,0.7-1.8,1.8-3.1c1.2-1.3,2.2-2,3.2-2l65.4-0.3
		c10.7-19.6,21.6-38.9,32.6-57.9c1.4-2.4,2.7-3.9,4-4.4c0.3-0.1,0.6-0.2,0.9-0.2c1,0,2.2,0.6,3.6,1.7c0.4,0.4,0.8,0.7,1.1,0.9
		c1.5,1,2.3,1.9,2.6,2.8c0.1,0.2,0.1,0.3,0.1,0.6c0,0.8-0.5,2.1-1.4,3.9c-0.7,1.3-1.7,2.9-2.9,4.8c-2,3.3-4.4,7.6-7.3,12.7
		l-19.3,34.8l58.6-0.2c1.4,0,2.1,0.4,2.3,1.2c0.1,0.2,0.1,0.4,0.1,0.7c0,0.5-0.2,1.1-0.7,1.8c-0.4,0.7-1,1.1-1.8,1.1L991.7,155.9z"
		/>
	<path class="st1" d="M1013,176.3c-1,1.3-2.5,3-4.4,5.1c-1.1,1.2-2.2,2.5-3.4,3.9c-3.6,4.1-6.6,7.7-8.9,10.8
		c-1.1,1.8-1.7,3.7-1.7,5.9c0,1.6,0.5,3.8,1.5,6.8c1,2.9,2.5,6.3,4.7,10.2c7.1-4.5,14.2-8.7,21.3-12.5c7.1-3.9,14-7.1,20.5-9.5
		c1.2-0.4,2.1-0.6,2.5-0.6h0.2c0.2,0.1,0.3,0.2,0.3,0.3c0,0.1-0.1,0.3-0.2,0.5c-0.4,0.6-2.1,2-5.1,4.2c-7.4,5.2-14.8,10.3-22.3,15.3
		c-4.9,3.2-9.7,6.5-14.6,9.8c0.2,1.3,0.3,2.7,0.3,4c0,4.3-1.3,9.2-3.8,14.5c-2.5,5.4-6.3,10.7-11.4,16.1
		c-5.1,5.4-10.6,9.9-16.6,13.6c-5.9,3.6-11.5,5.8-16.7,6.4c-0.8,0.1-1.6,0.2-2.3,0.2c-4.2,0-7.5-1.5-10.1-4.4c-2-2.2-3-4.4-3-6.8
		c0-0.7,0.3-2.1,0.8-4.1c0.6-2,4.2-5.7,10.9-11.2c12.8-10.7,26.2-20.7,40.2-30.1c0.3-0.2,0.7-0.4,1-0.6c0.6-0.4,1.2-0.8,1.8-1.2
		c-0.1-2.2-0.4-4.5-1.2-6.7c-0.9-2.6-2.4-5.6-4.5-8.9c-0.4-0.7-0.8-1.4-1.3-2.2c-2.5-4.3-3.8-8.2-3.8-11.9c0-1,0.3-2.8,0.9-5.5
		c0.6-2.7,3.2-6.2,8-10.7c0.4-0.4,0.8-0.9,1.4-1.4c1.6-1.7,3.5-3.5,5.6-5.4c2.1-1.9,3.9-3.3,5.5-4c0.4-0.2,0.7-0.2,1-0.2
		c0.2,0,0.4,0,0.7,0.1c0.3,0.1,0.7,0.4,1.2,0.8c0.6,0.5,1.3,1.2,2,1.9c0.7,0.7,1.3,1.4,1.9,2.1c0.5,0.6,0.9,1.1,1.2,1.4
		c0.3,0.4,0.5,0.7,0.6,1c0.2,0.2,0.2,0.4,0.2,0.7c0,0.2,0,0.4-0.1,0.7C1014.1,174.7,1013.7,175.3,1013,176.3z M992.6,233.9
		c-7.4,5.3-14.9,11.2-22.4,17.6s-14.1,12.9-19.6,19.4c4.9-2,10.1-4.8,15.7-8.5c5.6-3.7,10.8-7.9,15.6-12.8
		C986.6,244.7,990.2,239.5,992.6,233.9z"/>
</g>
<path class="st1" d="M583.7,88c16.3-5.4,49-9.7,67-15c31.7-9.4,55.5-19.8,67.6-25.3c17.3-7.9,34.1-16.7,49.9-27.2
	c8.9-5.9,17.2-12.6,25.8-19c0.5-0.4,1.1-0.8,2.1-1c-1.5,3.4-3,6.9-4.7,10.2c-18,34.7-43,63.1-75.5,84.9
	c-16.8,11.2-34.5,20.6-53.7,26.8c-15.7,5.1-31.7,8.8-48.1,11.2c-19.8,2.9-39.2,8-57.2,17.3c-8.9,4.6-17,10.4-23.2,18.3
	c-2.4,3.1-4.1,6.7-6,10.1c-0.5,1-0.5,2.2-1,4.1c3.1-2.1,5.5-3.8,8-5.4c14.6-9.4,30.9-14.3,47.7-17.9c16.1-3.4,32.6-4.3,48.9-5.7
	c32-2.8,62.8-9.9,91.3-25.1c2.8-1.5,5.4-3.2,8.7-5.3c-0.6,1.6-0.9,2.6-1.3,3.6c-4.5,9.4-10,18.3-17,26.1
	c-6.3,7.1-12.8,14.1-20.1,20.1c-17,14.1-36.4,23.6-57.8,29.4c-12.2,3.3-24.8,4.1-37.2,6.1c-15.9,2.6-30.9,7.6-43.3,18.3
	c-1.6,1.4-3,3.1-4.5,4.6c-0.3,0.3-0.4,0.7-0.6,1.1c0.1,0.3,0.2,0.6,0.2,0.8l0,0c19.3-3.9,38.6-4.7,57.8,0c0.1,0.2,0.1,0.5,0.2,0.7
	c-1.3,0.5-2.5,1.1-3.8,1.5c-14.6,5.2-28.6,11.4-41.3,20.3c-11.9,8.4-22.8,17.9-30.7,30.2c-2.5,3.9-4.4,8.1-6.6,12.1
	c-0.5,1-1.1,2-1.5,2.9c-9.4-10.8-18.8-21.3-28-32c-0.9-1-1.4-2.6-1.5-3.9c-0.1-30.1-0.4-60.2,0.1-90.3c0.2-16.1,6.3-30.2,16.4-43.2
	C528.7,110.3,541,102,583.7,88z"/>
<g>
	<path class="st1" d="M388,224.3l-7.4,1.2c-10.8,1.7-19.2,10.2-21,21l-1.2,7.4c-0.6,3.6-5.8,3.6-6.4,0l-1.2-7.4
		c-1.7-10.8-10.2-19.2-21-21l-7.4-1.2c-3.6-0.6-3.6-5.8,0-6.4l7.4-1.2c10.8-1.7,19.2-10.2,21-21l1.2-7.4c0.6-3.6,5.8-3.6,6.4,0
		l1.2,7.4c1.7,10.8,10.2,19.2,21,21l7.4,1.2C391.6,218.5,391.6,223.7,388,224.3L388,224.3z"/>
	<path class="st1" d="M295.1,170.6l-4.2,0.7c-6.2,1-11,5.8-12,12l-0.7,4.2c-0.3,2.1-3.3,2.1-3.6,0l-0.7-4.2c-1-6.2-5.8-11-12-12
		l-4.2-0.7c-2.1-0.3-2.1-3.3,0-3.6l4.2-0.7c6.2-1,11-5.8,12-12l0.7-4.2c0.3-2.1,3.3-2.1,3.6,0l0.7,4.2c1,6.2,5.8,11,12,12l4.2,0.7
		C297.1,167.3,297.1,170.3,295.1,170.6L295.1,170.6z"/>
	<path class="st1" d="M344.7,135.2l-2.4,0.4c-3.5,0.6-6.2,3.3-6.7,6.7l-0.4,2.4c-0.2,1.2-1.9,1.2-2,0l-0.4-2.4
		c-0.6-3.5-3.3-6.2-6.7-6.7l-2.4-0.4c-1.2-0.2-1.2-1.9,0-2l2.4-0.4c3.5-0.6,6.2-3.3,6.7-6.7l0.4-2.4c0.2-1.2,1.9-1.2,2,0l0.4,2.4
		c0.6,3.5,3.3,6.2,6.7,6.7l2.4,0.4C345.9,133.3,345.9,135,344.7,135.2L344.7,135.2z"/>
</g>
</svg>
