<?xml version="1.0" encoding="utf-8"?>
<!-- Generator: Adobe Illustrator 27.6.1, SVG Export Plug-In . SVG Version: 6.00 Build 0)  -->
<svg version="1.1" id="Layer_2_00000179641219355507998340000007137850809121743027_"
	 xmlns="http://www.w3.org/2000/svg" xmlns:xlink="http://www.w3.org/1999/xlink" x="0px" y="0px" viewBox="0 0 796.1 349.1"
	 style="enable-background:new 0 0 796.1 349.1;" xml:space="preserve">
<style type="text/css">
	.st0{fill:#C0001A;}
</style>
<g id="Layer_1-2">
	<g>
		<path class="st0" d="M549.9,234.3c19.3-3.9,38.6-4.7,57.8,0c0.1,0.2,0.1,0.5,0.2,0.7c-1.3,0.5-2.5,1.1-3.8,1.5
			c-14.6,5.2-28.6,11.4-41.3,20.3c-11.9,8.4-22.8,17.9-30.7,30.2c-2.5,3.9-4.4,8.1-6.6,12.1c-0.5,1-1.1,2-1.5,2.9
			c-9.4-10.8-18.8-21.3-28-32c-0.9-1-1.4-2.6-1.5-3.9c-0.1-30.1-0.4-60.2,0.1-90.3c0.2-16.1,5.6-30.8,16.4-43.2
			c0.7-0.8,1.3-1.7,1.6-2.9c-12.1,3.5-23.2,8.5-30,20.1c-19-18.3-41.1-31.2-65.5-41.3c-0.1,1.4-0.3,2.4-0.3,3.5
			c0,40.2-0.2,80.3,0.1,120.5c0,6.4-2,11.1-6.7,14.9c-3.5,2.8-7.2,5.4-10.9,8c-0.6,0.4-1.9,0.5-2.5,0.1c-6.2-3.1-11.6-7.3-15.7-12.9
			c-1.2-1.7-2.1-4-2.1-6.1c-0.1-35.1-0.1-70.3-0.1-105.4c0-6.6,0-13.2,0-19.7c0-1-0.3-1.9-0.4-3.1c-24.1,10.6-47,22.3-65.3,41.7
			c-3.4-5.3-7.8-9.8-13.2-13.1c-5.3-3.3-10.8-6-16.8-7.6c-0.2,0.2-0.4,0.4-0.5,0.6c0.5,0.7,0.9,1.5,1.4,2.1
			c12,13.2,17,29.1,17.1,46.5c0.2,28.9,0,57.8,0.1,86.7c0,2.7-0.9,4.7-2.6,6.7c-7.6,8.5-15.1,17-22.7,25.5c-1.3,1.5-2.5,3-3.9,4.7
			c-0.4-0.5-0.8-0.9-1-1.4c-5.2-13-14.1-23.3-24.3-32.6c-14.9-13.6-32.4-22.6-51-29.9c-2.6-1.1-5.3-2.1-7.9-3.5
			c19.1-4.6,38.3-4.5,57.9-1.3c-0.5-0.7-1-1.4-1.6-2.1c-8.2-8.9-18.7-14.2-30.1-17.8c-11.9-3.7-24.3-4.8-36.5-6.7
			c-47.8-7.5-84.3-31.9-108.8-73.7c-1.6-2.8-3.1-5.6-4.3-8.6c15.3,9.8,32.2,15.8,49.3,20.8c18.7,5.5,37.9,8.4,57.3,9.7
			c1.1,0.1,2.5,1.1,3,2.1c8.7,15.1,20.9,26.9,34.9,37c2.1,1.6,4.6,2.7,7.1,3.8c-10.3-12.9-19-26.7-27.3-41.4
			c14.6,1.3,28.4,3.8,41.9,8c13.5,4.3,26.3,9.9,38.3,18.1c-0.3-1.1-0.4-2.2-0.9-3.2c-4.6-10.2-12.1-17.9-21.5-23.9
			c-13-8.4-27.3-13.7-42.3-17c-8-1.8-16-3.4-24.1-5.1c-1.6-0.3-2.7-1-3.2-2.8c-3.4-11-6.7-22-7.3-33.6c0-0.3-0.1-0.6-0.3-1.7
			c-0.7,1.6-1.3,2.6-1.6,3.7c-2.8,9.3-4,18.8-3.2,28.6c0.3,2.9,0,3.2-2.8,2.6c-25.4-5.1-49.1-14.7-71.2-28
			C81.9,97,73.4,91,65.2,84.7c-24.6-18.7-43-42.7-58-69.4C5,11.4,3,7.4,1,3.3C0.6,2.5,0.5,1.6,0,0c2.5,2,4.4,3.4,6.3,5
			c13.8,11.4,28.9,20.7,44.5,29.2c19.9,10.9,40.5,20.2,61.8,28c21.2,7.7,42.8,14.4,64.9,18.8c19.3,3.9,38.7,7.3,58.1,10.2
			c17.6,2.6,35.4,2.5,53.1,0.1c26.2-3.5,50.5-12.4,73-26.4c3.7-2.3,7.1-5,10.5-7.8c1.6-1.3,2.3-1.3,3.5,0.4
			c5.9,8.6,13.4,15.7,21.5,22.3c0.3,0.2,0.6,0.3,0.9,0.5c8.5-6.7,16.2-14.1,22.3-22.9c0.8-1.1,1.3-2,2.7-0.8
			c14.8,12.4,31.9,20.3,50,26.5c20.5,7,41.7,9.8,63.4,9.6c15.9-0.1,31.6-2.3,47.2-4.9c22.6-3.7,45-8.6,67-15
			c23.1-6.8,45.7-15.3,67.6-25.3c17.3-7.9,34.1-16.7,49.9-27.2c8.9-5.9,17.2-12.6,25.8-19c0.5-0.4,1.1-0.8,2.1-1
			c-1.5,3.4-3,6.9-4.7,10.2c-18,34.7-43,63.2-75.5,84.9c-16.8,11.2-34.5,20.6-53.7,26.8c-15.7,5.1-31.7,8.8-48.1,11.2
			c-19.8,2.9-39.2,8-57.2,17.3c-8.9,4.6-17,10.4-23.2,18.3c-2.4,3.1-4.1,6.7-6,10.1c-0.5,1-0.5,2.2-1,4.1c3.1-2.1,5.5-3.8,8-5.4
			c14.6-9.4,30.9-14.3,47.7-17.9c16.1-3.4,32.6-4.3,48.9-5.7c32-2.8,62.8-9.9,91.3-25.1c2.8-1.5,5.4-3.2,8.7-5.3
			c-0.6,1.6-0.9,2.6-1.3,3.6c-4.5,9.5-10,18.3-17,26.1c-6.3,7.1-12.8,14.1-20.1,20.1c-17,14.1-36.4,23.6-57.8,29.4
			c-12.2,3.3-24.8,4.1-37.2,6.1c-15.9,2.6-30.9,7.6-43.3,18.3c-1.6,1.4-3,3.1-4.5,4.6c-0.3,0.3-0.4,0.7-0.6,1.1
			C549.7,233.8,549.8,234,549.9,234.3L549.9,234.3z"/>
		<path class="st0" d="M365,132.1c0,2.6,0,4.5,0,6.4c0,34.4,0,68.7,0.1,103.1c0,1.7,0.4,3.6,1.3,5.1c6,9.9,14.1,17.6,24.5,23.1
			c5,2.6,9.4,2.3,14-0.2c10.4-5.7,18.3-14,24.3-24.1c0.6-1.1,0.6-2.6,0.6-4c0-34.8,0-69.6,0-104.3c0-1.3,0-2.7,0-4.5
			c1.1,0.4,1.8,0.6,2.4,0.9c14.9,8.5,29.2,17.8,41,30.5c1.6,1.7,2.5,3.5,2.5,5.9c-0.1,30.4,0,60.9-0.1,91.3c0,2.7-0.7,5.6-1.8,8.1
			c-7.7,18-19.9,32.7-33.4,46.5c-12,12.4-25.7,22.5-39.9,32.1c-1.9,1.3-3.4,1.6-5.5,0.3c-17.9-11.3-34.1-24.6-48.1-40.5
			c-10.4-11.8-19.4-24.5-25.8-38.9c-1.3-2.9-1.8-6.4-1.8-9.6c-0.1-24.9-0.1-49.9-0.1-74.9c0-4.5,0-9.1-0.2-13.6
			c-0.1-2.3,0.7-4.1,2.2-5.8c9.3-10.4,20.2-18.6,32.1-25.8C356.9,136.9,360.7,134.7,365,132.1L365,132.1z"/>
	</g>
</g>
</svg>
